<svg width="990" height="133" viewBox="0 0 990 133" fill="none" xmlns="http://www.w3.org/2000/svg">
<path d="M10.8379 45.6182C10.8376 43.516 11.4608 41.461 12.6284 39.7129C13.7961 37.9648 15.4558 36.6023 17.3978 35.7974C19.3398 34.9926 21.4769 34.7817 23.5387 35.1913C25.6006 35.6009 27.4947 36.6128 28.9816 38.0988L31.3932 40.4897L39.0523 32.8306L36.6459 30.419C32.6006 26.4925 27.1731 24.3149 21.5358 24.3567C15.8985 24.3984 10.5038 26.6561 6.51716 30.6421C2.53051 34.628 0.271887 40.0223 0.229193 45.6596C0.186499 51.297 2.36316 56.7248 6.28898 60.7707L31.3984 85.8801L39.0574 78.2676L13.9739 53.1324C12.9868 52.1462 12.2043 50.9747 11.6714 49.6852C11.1386 48.3956 10.8658 47.0135 10.8689 45.6182" fill="#789904"/>
<path d="M79.5729 30.4397C75.5473 26.4143 70.0874 24.1528 64.3945 24.1528C58.7015 24.1528 53.2417 26.4143 49.216 30.4397L24.1118 55.5491L31.7761 63.2082L56.8751 38.0988C57.8622 37.11 59.0344 36.3253 60.3248 35.7895C61.6152 35.2537 62.9985 34.9773 64.3957 34.9761C65.7929 34.9749 67.1766 35.2489 68.4679 35.7825C69.7592 36.3161 70.9328 37.0987 71.9216 38.0859C72.9104 39.073 73.6951 40.2452 74.2309 41.5356C74.7667 42.8259 75.0431 44.2092 75.0443 45.6064C75.0455 47.0036 74.7715 48.3874 74.2379 49.6787C73.7043 50.97 72.9216 52.1435 71.9345 53.1323L69.5229 55.5439L77.1924 63.1978L79.5936 60.7914C81.5879 58.7993 83.1699 56.4336 84.2493 53.8296C85.3287 51.2256 85.8843 48.4344 85.8843 45.6156C85.8843 42.7967 85.3287 40.0055 84.2493 37.4016C83.1699 34.7976 81.5879 32.4319 79.5936 30.4397" fill="#003764"/>
<path d="M79.5729 73.3667L54.4687 48.2522L46.8096 55.9113L71.9345 81.031C73.9288 83.0246 75.0494 85.7287 75.0499 88.5485C75.0504 91.3684 73.9307 94.0729 71.9371 96.0671C69.9436 98.0614 67.2394 99.182 64.4196 99.1825C61.5998 99.183 58.8953 98.0633 56.901 96.0697L54.4894 93.6581L46.8303 101.322L49.2419 103.729C51.2302 105.746 53.598 107.349 56.2088 108.447C58.8196 109.545 61.6218 110.115 64.4541 110.125C67.2863 110.135 70.0924 109.584 72.7108 108.505C75.3293 107.425 77.7082 105.838 79.7105 103.835C81.7129 101.832 83.2991 99.4529 84.3777 96.8341C85.4562 94.2153 86.006 91.4089 85.9951 88.5767C85.9842 85.7445 85.413 82.9425 84.3143 80.332C83.2157 77.7216 81.6113 75.3543 79.5936 73.3667" fill="#789904"/>
<path d="M28.9816 96.0698C26.9647 97.9458 24.2983 98.9656 21.5443 98.9144C18.7903 98.8631 16.1638 97.7448 14.2181 95.7951C12.2724 93.8454 11.1595 91.2165 11.114 88.4624C11.0684 85.7083 12.0937 83.044 13.9739 81.031L16.3803 78.6246L8.69535 70.9604L6.28895 73.3668C2.26269 77.3924 0.000485334 82.8525 7.80837e-08 88.546C-0.000485178 94.2395 2.26079 99.7 6.28636 103.726C10.3119 107.753 15.7721 110.015 21.4656 110.015C27.1591 110.016 32.6196 107.754 36.6458 103.729L61.7449 78.6195L54.0858 70.9604L28.9816 96.0698Z" fill="#003764"/>
<path d="M133.078 45.5043H139.247L120.953 88.9592H119.55L100.899 45.5043H107.135L120.151 75.8922L133.078 45.5043Z" fill="#789904"/>
<path d="M163.016 45.5043H187.545V51.0209H169.21V64.2173H186.924V69.7598H169.21V83.1994H188.135V88.716H163.016V45.5043Z" fill="#789904"/>
<path d="M222.011 50.7725H220.153V64.4346H222.508C225.644 64.4346 227.802 64.1604 228.966 63.6273C230.104 63.116 231.056 62.2667 231.694 61.1951C232.354 60.0751 232.692 58.7948 232.672 57.4949C232.684 56.1811 232.305 54.8934 231.585 53.7947C230.862 52.6913 229.785 51.8665 228.532 51.4556C227.224 51.0002 225.051 50.7725 222.011 50.7725ZM213.959 88.7781V45.5095H224.801C229.179 45.5095 232.653 46.5928 235.223 48.7594C237.793 50.926 239.082 53.862 239.089 57.5673C239.178 59.8929 238.515 62.1853 237.199 64.1046C235.883 66.0239 233.983 67.468 231.782 68.2228C233.304 69.2616 234.671 70.5128 235.839 71.9385C237.874 74.5496 239.736 77.2914 241.412 80.1461C242.92 82.606 244.128 84.4552 245.035 85.6938L247.328 88.7988H239.938L238.054 85.9267C237.992 85.8232 237.868 85.6507 237.681 85.4092L236.475 83.7066L234.561 80.5446L232.491 77.1705C231.439 75.6612 230.263 74.2418 228.977 72.9269C228.126 72.0397 227.156 71.2751 226.094 70.6551C225.235 70.1893 223.791 69.9616 221.768 69.9616H220.153V88.7885L213.959 88.7781Z" fill="#789904"/>
<path d="M277.364 45.5043H271.169V88.7781H277.364V45.5043Z" fill="#789904"/>
<path d="M306.059 45.5043H329.14V51.0209H312.254V63.0995H329.14V68.6161H312.254V88.7781H306.059V45.5043Z" fill="#789904"/>
<path d="M376.274 50.7725C371.32 50.7725 367.251 52.325 364.066 55.4301C360.882 58.5351 359.288 62.4906 359.285 67.2965C359.285 71.9644 360.884 75.8457 364.082 78.9404C367.28 82.035 371.282 83.5876 376.088 83.5979C380.918 83.5979 384.948 82.0178 388.177 78.8576C389.755 77.3321 391 75.496 391.833 73.4652C392.666 71.4343 393.069 69.2528 393.016 67.0584C393.058 64.8992 392.65 62.7548 391.817 60.7623C390.984 58.7699 389.744 56.9731 388.177 55.487C386.607 53.9501 384.744 52.743 382.7 51.9368C380.656 51.1307 378.471 50.7419 376.274 50.7932V50.7725ZM376.026 44.9092C382.712 44.9092 388.279 47.0258 392.726 51.259C397.173 55.4922 399.397 60.7983 399.397 67.1775C399.397 73.56 397.154 78.842 392.669 83.0235C388.184 87.2049 382.531 89.2888 375.71 89.275C369.197 89.275 363.765 87.1842 359.414 83.0028C355.064 78.8213 352.892 73.5825 352.899 67.2861C352.899 60.8242 355.086 55.4767 359.461 51.2435C363.835 47.0103 369.357 44.8919 376.026 44.8885" fill="#789904"/>
<path d="M434.287 50.7725H432.424V64.4346H434.784C437.92 64.4346 440.073 64.1604 441.237 63.6273C442.377 63.1174 443.331 62.2679 443.969 61.1951C444.628 60.0747 444.965 58.7943 444.942 57.4949C444.957 56.1808 444.578 54.8924 443.856 53.7947C443.135 52.6914 442.06 51.8664 440.807 51.4556C439.493 51.0002 437.319 50.7725 434.287 50.7725ZM426.234 88.7781V45.5095H437.102C441.473 45.5095 444.946 46.5928 447.52 48.7594C450.093 50.926 451.38 53.8586 451.38 57.557C451.466 59.8891 450.797 62.1867 449.47 64.107C448.144 66.0273 446.233 67.4674 444.021 68.2124C445.545 69.2498 446.911 70.5012 448.078 71.9281C450.116 74.5389 451.979 77.2807 453.657 80.1358C455.165 82.5956 456.372 84.4449 457.28 85.6834L459.572 88.7885H452.218L450.335 85.937C450.273 85.8335 450.143 85.6576 449.962 85.4195L448.756 83.7169L446.836 80.5549L444.766 77.1808C443.713 75.6713 442.536 74.2519 441.247 72.9373C440.399 72.0477 439.428 71.2829 438.365 70.6654C437.506 70.1997 436.067 69.972 434.038 69.972H432.424V88.7988L426.234 88.7781Z" fill="#789904"/>
<path d="M520.684 78.7437V85.5592C516.141 88.0364 510.895 89.2749 504.947 89.2749C500.117 89.2749 496.02 88.3037 492.656 86.3614C489.319 84.4542 486.557 81.6834 484.661 78.34C482.713 74.9832 481.699 71.1669 481.721 67.2861C481.661 64.3128 482.229 61.3601 483.388 58.6215C484.548 55.8828 486.272 53.4197 488.449 51.3935C492.934 47.0982 498.475 44.9506 505.071 44.9506C509.608 44.9506 514.657 46.1374 520.219 48.511V55.1713C515.161 52.2836 510.217 50.8398 505.387 50.8398C500.422 50.8398 496.306 52.4026 493.039 55.5284C491.44 57.0326 490.177 58.8574 489.331 60.8835C488.486 62.9096 488.078 65.0914 488.133 67.2861C488.133 72.0368 489.743 75.9388 492.962 78.9921C496.181 82.0454 500.3 83.5737 505.32 83.5772C510.567 83.5772 515.689 81.966 520.684 78.7437Z" fill="#789904"/>
<path d="M547.336 45.5043H571.866V51.0209H553.531V64.2173H571.245V69.7598H553.531V83.1994H572.451V88.716H547.336V45.5043Z" fill="#789904"/>
<path d="M580.907 45.1782H586.796V45.9183H584.307V52.3923H583.417V45.9183H580.907V45.1782ZM596.085 45.1782V52.3923H595.314V46.8291L595.376 46.2805L592.633 51.0312C592.608 51.0924 592.565 51.1445 592.509 51.1805C592.454 51.2166 592.389 51.2349 592.323 51.2331H592.183C592.117 51.2349 592.052 51.2166 591.996 51.1805C591.941 51.1445 591.898 51.0924 591.873 51.0312L589.083 46.2909L589.145 46.8084V52.3923H588.359V45.1782H589.073C589.133 45.1676 589.194 45.1676 589.254 45.1782C589.309 45.2095 589.356 45.2518 589.394 45.3025L592.111 49.8565C592.142 49.9238 592.173 49.9859 592.193 50.0428C592.214 50.0997 592.23 50.1618 592.245 50.2188L592.323 50.0428L592.411 49.8565L595.076 45.3025C595.101 45.2494 595.143 45.2058 595.195 45.1782C595.255 45.1667 595.316 45.1667 595.376 45.1782H596.085Z" fill="#789904"/>
<path d="M735.894 32.5304C740.639 32.5259 745.333 33.5038 749.681 35.4026C747.19 37.6823 744.971 40.2419 743.067 43.0306C740.739 42.3401 738.323 41.9914 735.894 41.9956C721.87 41.9956 710.454 53.536 710.454 67.7208C710.454 81.9056 721.87 93.4512 735.894 93.4512C739.559 93.4587 743.181 92.6601 746.503 91.1121C750.942 89.024 754.694 85.7153 757.322 81.5731C759.949 77.4308 761.343 72.6261 761.34 67.7208H761.418C761.416 64.4126 762.356 61.1722 764.129 58.3789C765.901 55.5855 768.432 53.3546 771.426 51.9472C773.666 50.9118 776.106 50.3817 778.573 50.3947C783.122 50.4733 787.459 52.3357 790.649 55.5808C793.838 58.8259 795.625 63.194 795.625 67.7441C795.625 72.2942 793.838 76.6623 790.649 79.9074C787.459 83.1525 783.122 85.0149 778.573 85.0935C776.104 85.0982 773.664 84.5593 771.426 83.5151L767.98 81.8901L766.096 85.2073C763.368 90.0069 759.551 94.0996 754.954 97.1565C749.309 100.916 742.677 102.92 735.894 102.916C716.705 102.916 701.092 87.1273 701.092 67.726C701.092 48.3247 716.705 32.5356 735.894 32.5356" fill="#E99843"/>
<path d="M759.513 38.2799C765.162 34.5237 771.795 32.5232 778.578 32.5304C797.767 32.5304 813.38 48.3195 813.38 67.7208C813.38 87.1221 797.767 102.911 778.578 102.911C773.834 102.915 769.14 101.937 764.792 100.039C767.283 97.7595 769.502 95.1998 771.406 92.411C773.734 93.1015 776.15 93.4502 778.578 93.446C792.608 93.446 804.019 81.9056 804.019 67.7156C804.019 53.5256 792.608 41.9904 778.578 41.9904C774.913 41.9829 771.291 42.7815 767.969 44.3295L769.698 48.1384L767.98 44.3347C763.541 46.4214 759.788 49.729 757.161 53.8705C754.533 58.012 753.14 62.8161 753.143 67.7208H753.065C753.067 71.0291 752.128 74.2696 750.356 77.0637C748.585 79.8578 746.055 82.09 743.062 83.4995L744.79 87.3032L743.062 83.4995C740.82 84.5327 738.379 85.0626 735.91 85.0521C731.36 84.9735 727.024 83.1111 723.834 79.866C720.645 76.6209 718.858 72.2528 718.858 67.7027C718.858 63.1526 720.645 58.7845 723.834 55.5394C727.024 52.2943 731.36 50.4319 735.91 50.3533C738.379 50.3428 740.82 50.8727 743.062 51.9058L746.498 53.5049L748.382 50.1877C751.11 45.3881 754.926 41.2955 759.524 38.2385" fill="#48AAAD"/>
<path d="M735.894 32.5304C740.639 32.5259 745.333 33.5038 749.681 35.4026C747.191 37.6835 744.972 40.2429 743.067 43.0306C740.739 42.3401 738.323 41.9914 735.894 41.9956C721.87 41.9956 710.454 53.536 710.454 67.7208C710.454 81.9056 721.87 93.4512 735.894 93.4512C739.559 93.4587 743.181 92.6601 746.503 91.1121C750.942 89.024 754.694 85.7153 757.322 81.5731C759.949 77.4308 761.343 72.6261 761.34 67.7208H761.418C761.416 64.4126 762.356 61.1722 764.129 58.3789C765.901 55.5855 768.432 53.3546 771.426 51.9472C773.666 50.9118 776.106 50.3817 778.573 50.3947C783.067 50.55 787.326 52.4446 790.45 55.6788C793.574 58.9131 795.321 63.2342 795.321 67.7312C795.321 72.2281 793.574 76.5492 790.45 79.7835C787.326 83.0177 783.067 84.9123 778.573 85.0676C776.106 85.0782 773.667 84.5483 771.426 83.5151L767.98 81.8901L766.096 85.2073C763.368 90.0069 759.551 94.0996 754.954 97.1565C749.309 100.916 742.677 102.92 735.894 102.916C716.705 102.916 701.092 87.1273 701.092 67.726C701.092 48.3247 716.705 32.5356 735.894 32.5356V32.5304ZM759.508 38.2851C765.156 34.5289 771.79 32.5284 778.573 32.5356C797.762 32.5356 813.375 48.3195 813.375 67.726C813.375 87.1324 797.762 102.916 778.573 102.916C773.829 102.92 769.135 101.943 764.787 100.044C767.278 97.7647 769.497 95.205 771.4 92.4162C773.729 93.1067 776.145 93.4553 778.573 93.4512C792.603 93.4512 804.014 81.9108 804.014 67.7208C804.014 53.5308 792.603 41.9956 778.573 41.9956C774.908 41.9886 771.286 42.7871 767.964 44.3347L769.693 48.1384L767.98 44.3347C763.541 46.4214 759.788 49.729 757.161 53.8705C754.533 58.012 753.14 62.8161 753.143 67.7208H753.065C753.067 71.0291 752.128 74.2696 750.356 77.0637C748.585 79.8578 746.055 82.09 743.062 83.4995L744.79 87.3032L743.062 83.4995C740.82 84.5324 738.379 85.0623 735.91 85.0521C731.416 84.8967 727.157 83.0022 724.033 79.768C720.909 76.5337 719.162 72.2125 719.162 67.7156C719.162 63.2187 720.909 58.8975 724.033 55.6633C727.157 52.429 731.416 50.5345 735.91 50.3792C738.379 50.3666 740.82 50.8966 743.062 51.9317L746.498 53.5308L748.382 50.2136C751.11 45.414 754.926 41.3213 759.524 38.2644L759.508 38.2851ZM735.894 111.295C743.385 111.307 750.747 109.343 757.236 105.602C763.724 109.343 771.084 111.307 778.573 111.295C802.332 111.295 821.661 91.7486 821.661 67.7208C821.661 43.693 802.332 24.152 778.573 24.152C771.084 24.1377 763.723 26.1014 757.236 29.8446C750.748 26.1012 743.385 24.1375 735.894 24.152C712.136 24.152 692.807 43.6982 692.807 67.7208C692.807 91.7434 712.136 111.295 735.894 111.295Z" fill="#343B46"/>
<path d="M736.531 60.5274C735.041 60.511 733.58 60.9379 732.333 61.7537C731.087 62.5696 730.111 63.7376 729.529 65.1094C728.948 66.4812 728.788 67.9949 729.069 69.458C729.35 70.9212 730.059 72.2678 731.107 73.3268C732.155 74.3858 733.494 75.1093 734.955 75.4054C736.415 75.7015 737.93 75.5569 739.308 74.9899C740.686 74.4229 741.864 73.4591 742.692 72.221C743.521 70.9829 743.963 69.5263 743.962 68.0364C743.972 66.0554 743.195 64.1516 741.801 62.7436C740.407 61.3355 738.512 60.5384 736.531 60.5274Z" fill="#353D47"/>
<path d="M778.138 75.5507C779.628 75.5671 781.089 75.1404 782.335 74.3248C783.582 73.5091 784.558 72.3414 785.139 70.9699C785.721 69.5984 785.881 68.085 785.601 66.622C785.32 65.1589 784.611 63.8123 783.564 62.7531C782.516 61.694 781.178 60.97 779.718 60.6733C778.258 60.3766 776.743 60.5205 775.365 61.0867C773.987 61.6529 772.809 62.6159 771.979 63.8534C771.15 65.0908 770.707 66.5468 770.707 68.0365C770.702 69.0178 770.889 69.9906 771.26 70.8994C771.63 71.8081 772.176 72.6349 772.866 73.3327C773.556 74.0305 774.377 74.5855 775.282 74.966C776.186 75.3466 777.157 75.5453 778.138 75.5507Z" fill="#353D47"/>
<path d="M863.61 92.7267C856.365 92.7267 850.258 88.7885 847.396 83.9291V111.507H839.634V45.4474H847.396V52.9926C850.02 48.4903 856.339 44.0967 864.205 44.0967C877.66 44.0967 886.375 55.4818 886.375 68.4194C886.375 83.0493 876.361 92.7422 863.604 92.7422L863.61 92.7267ZM863.009 50.9795C853.591 50.9795 846.915 58.9698 846.915 68.6523C846.915 77.4499 853.234 85.9888 862.771 85.9888C872.309 85.9888 878.384 78.5574 878.384 68.4298C878.384 59.0836 873.023 50.9795 863.009 50.9795Z" fill="#343B46"/>
<path d="M899.478 68.6368C899.716 78.428 906.035 85.9732 916.763 85.9732C924.008 85.9732 928.919 83.4944 933.323 79.67L938.327 84.281C933.799 88.6746 926.885 92.7267 916.514 92.7267C900.989 92.7267 891.601 82.0298 891.601 67.8502C891.601 55.2437 900.917 44.0967 915.924 44.0967C931.061 44.0967 939.046 55.4818 939.284 68.6368H899.478ZM915.567 50.7415C906.511 50.7415 901.144 56.0304 899.835 62.7838H930.59C929.395 56.5737 924.272 50.7415 915.583 50.7415" fill="#343B46"/>
<path d="M968.772 92.7267C953.63 92.7267 944.092 81.9212 944.092 68.3004C944.092 55.1299 954.225 44.0967 968.172 44.0967C979.262 44.0967 985.456 49.3908 989.032 53.7792L983.195 58.0538C979.976 54.1156 975.432 50.964 968.653 50.964C958.639 50.964 952.093 59.0681 952.093 67.964C952.093 78.428 959.007 85.9732 968.544 85.9732C975.458 85.9732 980.343 82.7078 984.395 77.5275L990 81.4709C985.467 87.681 977.958 92.7267 968.782 92.7267" fill="#343B46"/>
<path d="M639.794 0V132.932" stroke="#ABABAB" stroke-width="1.03501"/>
</svg>
