<svg width="800" height="800" version="1.1" viewBox="0 0 800 800" xmlns="http://www.w3.org/2000/svg">
    <rect x="0" y="0" width="800" height="800" fill="#E3E3E3" />
    <path
      fill="#A3A2A2"
      d="m800,800c-39.8,-16.7 -226.1,-193.6 -284.6,-210.9c-5,-1.6 -5.8,-1.8 -5.8,-22.5c0,-17.1 7,-34.3 13.9,-48.9c7.4,-15.9 16.3,-42.5 19.4,-66.4c8.9,-10.3 20.9,-30.6 28.7,-69.2c6.8,-34.1 3.6,-46.4 -0.9,-58.1c-0.5,-1.2 -1,-2.4 -1.3,-3.6c-1.7,-8 0.6,-49.5 6.4,-81.7c4,-22.1 -1,-69.1 -31.4,-107.9c-19.2,-24.5 -56,-54.7 -123.1,-58.9l-36.8,0c-66,4.2 -102.7,34.3 -121.9,58.9c-30.4,38.8 -35.5,85.8 -31.4,107.9c5.8,32.2 8.2,73.7 6.5,81.5c-0.4,1.4 -0.9,2.6 -1.4,3.8c-4.5,11.7 -7.7,24 -0.9,58.1c7.8,38.6 19.8,58.9 28.7,69.2c3.1,23.9 11.9,50.5 19.4,66.4c5.5,11.6 8,27.3 8,49.6c0,20.7 -0.7,21 -5.4,22.4c-60.3,17.8 -250.2,194.6 -286.1,210.3c73.4,87 277.4,0 400,0c123.7,0 326.6,88.2 400,0z"
    />
  </svg>